<?xml version="1.0" standalone="no"?>
<!DOCTYPE svg PUBLIC "-//W3C//DTD SVG 20010904//EN"
 "http://www.w3.org/TR/2001/REC-SVG-20010904/DTD/svg10.dtd">
<svg version="1.0" xmlns="http://www.w3.org/2000/svg"
 width="500.000000pt" height="500.000000pt" viewBox="0 0 500.000000 500.000000"
 preserveAspectRatio="xMidYMid meet">
<metadata>
Created by potrace 1.14, written by Peter Selinger 2001-2017
</metadata>
<g transform="translate(0.000000,500.000000) scale(0.100000,-0.100000)"
fill="#000000" stroke="none">
<path d="M3011 2698 c-23 -62 -103 -359 -98 -364 15 -15 35 8 46 50 l11 46 70
0 69 0 13 -47 c9 -30 20 -49 31 -51 9 -2 17 2 17 10 0 7 -24 94 -53 193 -46
160 -54 180 -74 183 -16 2 -25 -3 -32 -20z m58 -125 c13 -49 26 -94 29 -100 3
-10 -13 -13 -58 -13 -46 0 -61 3 -58 13 3 6 15 51 28 100 13 48 26 87 29 87 4
0 17 -39 30 -87z"/>
<path d="M400 2520 c0 -183 1 -190 20 -190 18 0 20 7 20 80 l0 80 63 0 c75 0
102 16 118 68 8 28 8 49 0 80 -16 56 -47 72 -146 72 l-75 0 0 -190z m167 138
c30 -28 32 -89 3 -118 -15 -15 -33 -20 -75 -20 l-55 0 0 80 0 80 52 0 c39 0
57 -5 75 -22z"/>
<path d="M770 2520 c0 -183 1 -190 20 -190 19 0 20 7 20 190 0 183 -1 190 -20
190 -19 0 -20 -7 -20 -190z"/>
<path d="M960 2520 l0 -190 110 0 c91 0 110 3 110 15 0 12 -17 15 -90 15 l-90
0 0 75 0 75 75 0 c60 0 75 3 75 15 0 12 -15 15 -75 15 l-75 0 0 70 0 70 90 0
c73 0 90 3 90 15 0 12 -19 15 -110 15 l-110 0 0 -190z"/>
<path d="M1320 2520 c0 -160 2 -190 15 -190 11 0 15 18 17 78 l3 77 42 3 41 3
30 -78 c23 -60 35 -79 52 -81 21 -3 21 -3 4 35 -47 110 -50 124 -31 134 41 23
59 102 35 154 -18 39 -57 55 -138 55 l-70 0 0 -190z m160 140 c13 -13 20 -33
20 -60 0 -58 -26 -80 -95 -80 l-55 0 0 80 0 80 55 0 c42 0 60 -5 75 -20z"/>
<path d="M1690 2520 c0 -160 2 -190 15 -190 11 0 15 18 17 78 l3 77 42 3 41 3
30 -78 c23 -60 35 -79 52 -81 21 -3 21 -3 4 35 -47 110 -50 124 -31 134 41 23
59 102 35 154 -18 39 -57 55 -138 55 l-70 0 0 -190z m160 140 c13 -13 20 -33
20 -60 0 -58 -26 -80 -95 -80 l-55 0 0 80 0 80 55 0 c42 0 60 -5 75 -20z"/>
<path d="M2060 2520 l0 -190 105 0 c87 0 105 3 105 15 0 12 -17 15 -90 15
l-90 0 0 75 0 75 80 0 c64 0 80 3 80 15 0 12 -16 15 -80 15 l-80 0 0 70 0 70
90 0 c73 0 90 3 90 15 0 12 -18 15 -105 15 l-105 0 0 -190z"/>
<path d="M2590 2520 c0 -183 1 -190 20 -190 19 0 20 7 20 90 l0 90 70 0 c56 0
70 3 70 15 0 12 -14 15 -70 15 l-70 0 0 70 0 70 85 0 c69 0 85 3 85 15 0 12
-18 15 -105 15 l-105 0 0 -190z"/>
<path d="M3310 2520 c0 -160 2 -190 15 -190 11 0 15 18 17 78 l3 77 44 0 44 0
30 -77 c23 -60 35 -78 50 -78 11 0 17 5 14 13 -3 6 -17 42 -31 78 l-27 66 30
31 c27 26 31 38 31 82 0 44 -4 56 -29 81 -28 27 -34 29 -110 29 l-81 0 0 -190z
m160 142 c17 -14 23 -29 23 -60 0 -63 -22 -82 -95 -82 l-58 0 0 80 0 80 54 0
c37 0 61 -6 76 -18z"/>
<path d="M3680 2521 l0 -191 68 0 c118 0 169 45 179 159 7 80 -11 152 -48 187
-28 26 -38 29 -115 33 l-84 3 0 -191z m172 130 c32 -28 33 -33 36 -113 5 -130
-32 -181 -128 -176 l-45 3 -3 158 -3 157 56 0 c46 0 60 -4 87 -29z"/>
<path d="M4080 2520 l0 -190 105 0 c87 0 105 3 105 15 0 12 -17 15 -90 15
l-90 0 0 75 0 75 80 0 c64 0 80 3 80 15 0 12 -16 15 -80 15 l-80 0 0 70 0 70
90 0 c73 0 90 3 90 15 0 12 -18 15 -105 15 l-105 0 0 -190z"/>
<path d="M4430 2520 l0 -190 100 0 c81 0 100 3 100 15 0 11 -18 15 -82 17
l-83 3 -3 173 c-2 144 -5 172 -17 172 -13 0 -15 -29 -15 -190z"/>
</g>
</svg>
